<svg xmlns="http://www.w3.org/2000/svg" width="1857.082" height="2203.081" viewBox="0 0 1857.082 2203.081">
  <g id="Train_Lines" data-name="Train Lines" transform="translate(2080.145 -115.11) rotate(90)" opacity="0.054">
    <line id="Line_53" data-name="Line 53" x2="1204" y2="38" transform="translate(115.851 1902.036)" fill="none" stroke="#006837" stroke-linejoin="round" stroke-width="7"/>
    <line id="Line_54" data-name="Line 54" x2="984.313" y2="6.109" transform="translate(1333.851 1940.036)" fill="none" stroke="#006837" stroke-linejoin="round" stroke-width="7"/>
    <line id="Line_55" data-name="Line 55" x2="243.002" y2="0.114" transform="translate(115.851 1779.036)" fill="none" stroke="#1b1464" stroke-linejoin="round" stroke-width="7"/>
    <path id="Path_52" data-name="Path 52" d="M370.112,512.09a47.075,47.075,0,0,1-11.342,1.38" transform="translate(0 1265.814)" fill="none" stroke="#1b1464" stroke-linejoin="round" stroke-width="7"/>
    <path id="Path_53" data-name="Path 53" d="M643.973,512.043a92.552,92.552,0,0,1,39.4-8.7" transform="translate(79.007 1276.189)" fill="none" stroke="#1b1464" stroke-linejoin="round" stroke-width="7"/>
    <line id="Line_56" data-name="Line 56" x2="278.886" y2="0.04" transform="translate(116.111 2013.602)" fill="none" stroke="#c1272d" stroke-linejoin="round" stroke-width="7"/>
    <line id="Line_57" data-name="Line 57" y1="0.337" x2="428.431" transform="translate(410.851 2013.699)" fill="none" stroke="#c1272d" stroke-linejoin="round" stroke-width="7"/>
    <path id="Path_54" data-name="Path 54" d="M785.782,281.13a538.491,538.491,0,0,1,79.378,5.734" transform="translate(52.777 1732.568)" fill="none" stroke="#c1272d" stroke-linejoin="round" stroke-width="7"/>
    <line id="Line_58" data-name="Line 58" x2="57" y2="14" transform="translate(917.851 2019.036)" fill="none" stroke="#c1272d" stroke-linejoin="round" stroke-width="7"/>
    <line id="Line_59" data-name="Line 59" x2="59" y2="23" transform="translate(988.851 2042.036)" fill="none" stroke="#c1272d" stroke-linejoin="round" stroke-width="7"/>
    <line id="Line_60" data-name="Line 60" y1="0.342" x2="381.738" transform="translate(1127.113 2070.036)" fill="none" stroke="#c1272d" stroke-linejoin="round" stroke-width="7"/>
    <line id="Line_61" data-name="Line 61" x2="793.313" y2="2.109" transform="translate(1524.851 2068.036)" fill="none" stroke="#c1272d" stroke-linejoin="round" stroke-width="7"/>
    <path id="Path_55" data-name="Path 55" d="M1030.176,235.773a689.328,689.328,0,0,1-89.9-5.733" transform="translate(107.867 1834.749)" fill="none" stroke="#c1272d" stroke-linejoin="round" stroke-width="7"/>
    <line id="Line_62" data-name="Line 62" y1="0.541" x2="2202.048" transform="translate(116.115 1983.145)" fill="none" stroke="#ed1c24" stroke-linejoin="round" stroke-width="7"/>
    <line id="Line_63" data-name="Line 63" x2="471" transform="translate(115.851 1836.036)" fill="none" stroke="#1b1464" stroke-linejoin="round" stroke-width="7"/>
    <line id="Line_64" data-name="Line 64" y1="39" x2="97" transform="translate(625.851 1788.036)" fill="none" stroke="#1b1464" stroke-linejoin="round" stroke-width="7"/>
    <path id="Path_56" data-name="Path 56" d="M564.9,457.292a92.544,92.544,0,0,1-39.4,8.7" transform="translate(61.275 1369.77)" fill="none" stroke="#1b1464" stroke-linejoin="round" stroke-width="7"/>
    <line id="Line_65" data-name="Line 65" x2="2202.037" y2="17.657" transform="translate(116.126 1902.464)" fill="none" stroke="#8cc63f" stroke-linejoin="round" stroke-width="7"/>
    <line id="Line_66" data-name="Line 66" y1="128" x2="149" transform="translate(119.851 1651.036)" fill="none" stroke="#0071bc" stroke-linejoin="round" stroke-width="7"/>
    <path id="Path_120" data-name="Path 120" d="M0,1400.664-1.275-.85" transform="translate(279.547 223.917)" fill="none" stroke="#0071bc" stroke-width="7"/>
    <path id="Path_57" data-name="Path 57" d="M275.838,776.451c0-46.353,17.242-83.921,38.505-83.914" transform="translate(3.185 862.04)" fill="none" stroke="#0071bc" stroke-linejoin="round" stroke-width="7"/>
    <line id="Line_68" data-name="Line 68" x2="14.635" y2="0.002" transform="translate(278.955 1642.437)" fill="none" stroke="#0071bc" stroke-linejoin="round" stroke-width="7"/>
    <line id="Line_69" data-name="Line 69" y1="65.605" x2="54.274" transform="translate(327.302 1560.059)" fill="none" stroke="#0071bc" stroke-linejoin="round" stroke-width="7"/>
    <line id="Line_70" data-name="Line 70" y1="47.975" x2="39.801" transform="translate(389.799 1499.847)" fill="none" stroke="#0071bc" stroke-linejoin="round" stroke-width="7"/>
    <path id="Path_60" data-name="Path 60" d="M330.118,643.469c-8.524,13.066-22.131,20.794-36.61,20.791" transform="translate(0 978.073)" fill="none" stroke="#0071bc" stroke-linejoin="round" stroke-width="7"/>
    <path id="Path_61" data-name="Path 61" d="M429.361,797.071c7.846-9.471,20.373-15.072,33.7-15.07" transform="translate(0 701.856)" fill="none" stroke="#0071bc" stroke-linejoin="round" stroke-width="7"/>
    <line id="Line_71" data-name="Line 71" x2="130" transform="translate(462.851 1484.036)" fill="none" stroke="#0071bc" stroke-linejoin="round" stroke-width="7"/>
    <line id="Line_72" data-name="Line 72" y1="1" x2="100" transform="translate(608.851 1483.036)" fill="none" stroke="#0071bc" stroke-linejoin="round" stroke-width="7"/>
    <path id="Path_62" data-name="Path 62" d="M668.174,797.047c-8.961,8.765-22.235,13.833-36.232,13.831" transform="translate(76.905 672.519)" fill="none" stroke="#0071bc" stroke-linejoin="round" stroke-width="7"/>
    <line id="Line_73" data-name="Line 73" y1="19.529" x2="21.771" transform="translate(745.079 1450.036)" fill="none" stroke="#0071bc" stroke-linejoin="round" stroke-width="7"/>
    <path id="Path_63" data-name="Path 63" d="M679.343,839.672c12.781-13.48,34.642-17.1,52.131-8.637" transform="translate(84.876 613.25)" fill="none" stroke="#0071bc" stroke-linejoin="round" stroke-width="7"/>
    <line id="Line_74" data-name="Line 74" x2="101" y2="47" transform="translate(895.851 1474.036)" fill="none" stroke="#29abe2" stroke-linejoin="round" stroke-width="7"/>
    <path id="Path_64" data-name="Path 64" d="M744.6,813.055c15.068-7.435,34.122-9.251,51.341-4.9" transform="translate(79.882 662.265)" fill="none" stroke="#0071bc" stroke-linejoin="round" stroke-width="7"/>
    <line id="Line_75" data-name="Line 75" x1="179" y2="41" transform="translate(808.851 1589.036)" fill="none" stroke="#29abe2" stroke-linejoin="round" stroke-width="7"/>
    <line id="Line_76" data-name="Line 76" x1="679" y2="147" transform="translate(115.851 1632.036)" fill="none" stroke="#29abe2" stroke-linejoin="round" stroke-width="7"/>
    <path id="Path_65" data-name="Path 65" d="M883.4,694.122c14.862,7.193,23.281,21.585,21.289,36.393s-14,27.078-30.357,31.026" transform="translate(112.961 827.273)" fill="none" stroke="#29abe2" stroke-linejoin="round" stroke-width="7"/>
    <line id="Line_77" data-name="Line 77" x2="61.171" y2="0.009" transform="translate(317.61 1553.928)" fill="none" stroke="#0071bc" stroke-linejoin="round" stroke-width="7"/>
    <line id="Line_78" data-name="Line 78" x2="242.257" y2="0.096" transform="translate(392.593 1553.94)" fill="none" stroke="#0071bc" stroke-linejoin="round" stroke-width="7"/>
    <line id="Line_79" data-name="Line 79" x2="24.374" y2="0.068" transform="translate(651.477 1553.968)" fill="none" stroke="#0071bc" stroke-linejoin="round" stroke-width="7"/>
    <path id="Path_66" data-name="Path 66" d="M627.15,728.982a45.809,45.809,0,0,1-23.5,6.373" transform="translate(72.36 818.636)" fill="none" stroke="#0071bc" stroke-linejoin="round" stroke-width="7"/>
    <line id="Line_80" data-name="Line 80" y1="75.717" x2="128.629" transform="translate(695.851 1475.319)" fill="none" stroke="#0071bc" stroke-linejoin="round" stroke-width="7"/>
    <line id="Line_81" data-name="Line 81" y1="151" x2="695" transform="translate(369.851 1628.036)" fill="none" stroke="#1b1464" stroke-linejoin="round" stroke-width="7"/>
    <path id="Path_67" data-name="Path 67" d="M958.415,650.633a56.715,56.715,0,0,1,41.075,11.886" transform="translate(125.563 976.058)" fill="none" stroke="#1b1464" stroke-linejoin="round" stroke-width="7"/>
    <line id="Line_82" data-name="Line 82" x2="54.752" y2="41.63" transform="translate(1122.234 1636.134)" fill="none" stroke="#1b1464" stroke-linejoin="round" stroke-width="7"/>
    <path id="Path_68" data-name="Path 68" d="M1111.164,607.641c-21.881,9.173-47.837,6.062-66.156-7.93" transform="translate(129.689 1076.018)" fill="none" stroke="#1b1464" stroke-linejoin="round" stroke-width="7"/>
    <line id="Line_83" data-name="Line 83" y1="26.624" x2="76.467" transform="translate(1238.384 1657.036)" fill="none" stroke="#1b1464" stroke-linejoin="round" stroke-width="7"/>
    <line id="Line_84" data-name="Line 84" y1="42" x2="219" transform="translate(1327.851 1609.036)" fill="none" stroke="#1b1464" stroke-linejoin="round" stroke-width="7"/>
    <line id="Line_85" data-name="Line 85" y1="0.113" x2="204.998" transform="translate(358.853 1779.036)" fill="none" stroke="#1b1464" stroke-linejoin="round" stroke-width="7"/>
    <line id="Line_86" data-name="Line 86" x2="583" transform="translate(577.851 1779.036)" fill="none" stroke="#1b1464" stroke-linejoin="round" stroke-width="7"/>
    <line id="Line_87" data-name="Line 87" y1="0.081" x2="1143.313" transform="translate(1174.851 1778.955)" fill="none" stroke="#1b1464" stroke-linejoin="round" stroke-width="7"/>
    <line id="Line_88" data-name="Line 88" x1="64" y1="27" transform="translate(815.851 1444.036)" fill="none" stroke="#0071bc" stroke-linejoin="round" stroke-width="7"/>
    <path id="Path_69" data-name="Path 69" d="M408.809,286.847c0,3.393-3.13,6.142-6.989,6.142s-6.989-2.751-6.988-6.144,3.13-6.141,6.989-6.141,6.989,2.751,6.988,6.143" transform="translate(0 1726.87)" fill="none" stroke="#c1272d" stroke-linejoin="round" stroke-width="7"/>
    <path id="Path_70" data-name="Path 70" d="M278.791,643.546c0,3.393-3.13,6.142-6.99,6.141s-6.988-2.75-6.988-6.143,3.13-6.141,6.99-6.141,6.988,2.751,6.988,6.143" transform="translate(4 1000.972)" fill="none" stroke="#0071bc" stroke-linejoin="round" stroke-width="7"/>
    <path id="Path_71" data-name="Path 71" d="M392.593,729.086c0,3.392-3.129,6.142-6.989,6.141s-6.988-2.751-6.988-6.143,3.13-6.142,6.99-6.141,6.988,2.751,6.987,6.143" transform="translate(0 824.893)" fill="none" stroke="#0071bc" stroke-linejoin="round" stroke-width="7"/>
    <path id="Path_72" data-name="Path 72" d="M795.147,807.648c0,3.392-3.129,6.142-6.989,6.141s-6.988-2.751-6.988-6.143,3.13-6.142,6.99-6.141,6.988,2.751,6.987,6.143" transform="translate(98.215 665.014)" fill="none" stroke="#0071bc" stroke-linejoin="round" stroke-width="7"/>
    <path id="Path_73" data-name="Path 73" d="M547.668,797.133c0,3.393-3.13,6.142-6.99,6.142s-6.988-2.751-6.988-6.144,3.13-6.141,6.99-6.141,6.988,2.751,6.988,6.143" transform="translate(61.668 686.412)" fill="none" stroke="#0071bc" stroke-linejoin="round" stroke-width="7"/>
    <path id="Path_74" data-name="Path 74" d="M582.354,729.059c0,3.392-3.13,6.142-6.989,6.141s-6.988-2.751-6.988-6.143,3.13-6.142,6.989-6.141,6.989,2.751,6.988,6.143" transform="translate(66.79 824.948)" fill="none" stroke="#0071bc" stroke-linejoin="round" stroke-width="7"/>
    <path id="Path_75" data-name="Path 75" d="M721.786,655.622c0,3.392-3.129,6.142-6.989,6.141s-6.988-2.751-6.988-6.143,3.13-6.142,6.99-6.141,6.988,2.751,6.987,6.143" transform="translate(87.381 974.397)" fill="none" stroke="#29abe2" stroke-linejoin="round" stroke-width="7"/>
    <path id="Path_76" data-name="Path 76" d="M519.837,512.141c0,3.392-3.13,6.142-6.99,6.141s-6.988-2.751-6.987-6.143S508.989,506,512.849,506s6.988,2.751,6.988,6.143" transform="translate(57.558 1267.169)" fill="none" stroke="#1b1464" stroke-linejoin="round" stroke-width="7"/>
    <path id="Path_77" data-name="Path 77" d="M958.741,657.9c0,3.392-3.13,6.142-6.989,6.141s-6.989-2.751-6.988-6.143,3.13-6.142,6.989-6.141,6.989,2.751,6.988,6.143" transform="translate(122.374 969.761)" fill="none" stroke="#1b1464" stroke-linejoin="round" stroke-width="7"/>
    <path id="Path_78" data-name="Path 78" d="M1174.151,635.468c0,3.392-3.13,6.141-6.99,6.141s-6.988-2.751-6.987-6.143,3.129-6.142,6.989-6.141,6.988,2.75,6.988,6.143" transform="translate(154.186 1015.412)" fill="none" stroke="#1b1464" stroke-linejoin="round" stroke-width="7"/>
    <path id="Path_79" data-name="Path 79" d="M1178.88,360.877c0,3.392-3.13,6.141-6.99,6.141s-6.988-2.751-6.987-6.144,3.13-6.141,6.989-6.141,6.988,2.751,6.988,6.144" transform="translate(154.884 1578.811)" fill="none" stroke="#006837" stroke-linejoin="round" stroke-width="7"/>
    <path id="Path_80" data-name="Path 80" d="M1040.281,512.933c0,3.392-3.13,6.142-6.989,6.141s-6.989-2.751-6.988-6.143,3.13-6.142,6.989-6.141,6.989,2.751,6.988,6.143" transform="translate(134.416 1265.559)" fill="none" stroke="#1b1464" stroke-linejoin="round" stroke-width="7"/>
    <path id="Path_81" data-name="Path 81" d="M1345.6,230.061c0,3.392-3.13,6.141-6.99,6.141s-6.988-2.751-6.988-6.143,3.13-6.142,6.99-6.142,6.988,2.751,6.988,6.144" transform="translate(179.505 1840.443)" fill="none" stroke="#c1272d" stroke-linejoin="round" stroke-width="7"/>
    <path id="Path_82" data-name="Path 82" d="M877.945,261.489c0,3.392-3.13,6.142-6.989,6.141s-6.988-2.751-6.988-6.143,3.13-6.142,6.99-6.141,6.988,2.751,6.987,6.143" transform="translate(110.442 1777.586)" fill="none" stroke="#c1272d" stroke-linejoin="round" stroke-width="7"/>
    <line id="Line_89" data-name="Line 89" x1="771.356" y1="0.008" transform="translate(1546.807 1608.494)" fill="none" stroke="#1b1464" stroke-linejoin="round" stroke-width="7"/>
  </g>
</svg>
